<svg width="19" height="21" viewBox="0 0 19 21" fill="none" xmlns="http://www.w3.org/2000/svg">
<path d="M5.02423 0.329837C5.77519 0.584229 6.4896 0.935887 7.14923 1.37584C8.08081 1.13775 9.03871 1.01814 10.0002 1.01984C10.9932 1.01984 11.9512 1.14384 12.8492 1.37484C13.5086 0.935313 14.2227 0.583995 14.9732 0.329837C15.6702 0.0928372 16.6632 -0.291163 17.2532 0.361837C17.6532 0.805837 17.7532 1.54984 17.8242 2.11784C17.9042 2.75184 17.9232 3.57784 17.7132 4.39784C18.5162 5.43484 19.0002 6.67184 19.0002 8.01984C19.0002 10.0618 17.8942 11.8348 16.2572 13.0628C15.4694 13.6464 14.5956 14.1038 13.6672 14.4188C13.8812 14.9088 14.0002 15.4508 14.0002 16.0198V19.0198C14.0002 19.2851 13.8949 19.5394 13.7073 19.7269C13.5198 19.9145 13.2654 20.0198 13.0002 20.0198H7.00023C6.73501 20.0198 6.48066 19.9145 6.29312 19.7269C6.10559 19.5394 6.00023 19.2851 6.00023 19.0198V18.0288C5.04523 18.1458 4.24423 18.0418 3.56323 17.7528C2.85123 17.4508 2.35523 16.9828 1.98223 16.5348C1.62823 16.1108 1.24223 15.1548 0.684229 14.9688C0.559605 14.9273 0.444374 14.8617 0.345117 14.7757C0.245859 14.6896 0.164519 14.5849 0.105739 14.4674C-0.0129713 14.2302 -0.032579 13.9555 0.0512294 13.7038C0.135038 13.4521 0.315397 13.2441 0.552631 13.1253C0.789864 13.0066 1.06454 12.987 1.31623 13.0708C1.98223 13.2928 2.41623 13.7728 2.71323 14.1588C3.19323 14.7788 3.58323 15.5888 4.34323 15.9118C4.65623 16.0448 5.11523 16.1318 5.83323 16.0338L6.00023 15.9998C6.00214 15.4556 6.11547 14.9176 6.33323 14.4188C5.40482 14.1039 4.53104 13.6464 3.74323 13.0628C2.10623 11.8348 1.00023 10.0628 1.00023 8.01984C1.00023 6.67384 1.48323 5.43784 2.28423 4.40184C2.07423 3.58184 2.09223 2.75384 2.17223 2.11884L2.17723 2.08084C2.25023 1.49884 2.33523 0.813837 2.74323 0.361837C3.33323 -0.291163 4.32723 0.0938374 5.02323 0.330837L5.02423 0.329837Z" fill="#1F2937"/>
</svg>
