<svg width="24" height="34" viewBox="0 0 24 34" fill="none" xmlns="http://www.w3.org/2000/svg">
<path d="M9.65406 0.835587C7.30778 2.07204 6.38249 3.94544 6.15116 8.02947C5.91984 11.5515 5.25892 13.6872 3.34224 17.359C1.29338 21.2183 0.268944 25.115 0.0706672 30.0982C-0.0284713 32.3463 -0.0284713 34.1073 0.103713 33.9949C0.202852 33.8825 0.533314 32.3088 0.797683 30.4729C1.9543 23.0917 5.06064 17.3216 9.05923 15.2608C12.0995 13.6872 15.8998 14.8861 18.4774 18.2208C20.361 20.6562 22.3438 25.3772 22.9717 28.9742C23.897 34.2946 24.0952 34.5195 23.9631 30.0982C23.7648 23.4664 22.0464 18.4831 18.4443 14.0244L16.7259 11.8887L17.2547 10.5773C17.5851 9.86541 17.8165 8.77883 17.8165 8.17934C17.8165 7.01783 18.8409 5.85632 20.7245 4.99455C22.6412 4.05785 21.8811 3.08367 18.7418 2.52165C17.6182 2.29684 15.7676 1.65988 14.7101 1.02293C12.3638 -0.288459 11.8682 -0.325926 9.65406 0.835587Z" fill="white"/>
</svg>
