<svg width="92" height="34" viewBox="0 0 92 34" fill="none" xmlns="http://www.w3.org/2000/svg">
<path d="M9.65406 0.835587C7.30778 2.07204 6.38249 3.94544 6.15116 8.02947C5.91984 11.5515 5.25892 13.6872 3.34224 17.359C1.29338 21.2183 0.268944 25.115 0.0706672 30.0982C-0.0284713 32.3463 -0.0284713 34.1073 0.103713 33.9949C0.202852 33.8825 0.533314 32.3088 0.797683 30.4729C1.9543 23.0917 5.06064 17.3216 9.05923 15.2608C12.0995 13.6872 15.8998 14.8861 18.4774 18.2208C20.361 20.6562 22.3438 25.3772 22.9717 28.9742C23.897 34.2946 24.0952 34.5195 23.9631 30.0982C23.7648 23.4664 22.0464 18.4831 18.4443 14.0244L16.7259 11.8887L17.2547 10.5773C17.5851 9.86541 17.8165 8.77883 17.8165 8.17934C17.8165 7.01783 18.8409 5.85632 20.7245 4.99455C22.6412 4.05785 21.8811 3.08367 18.7418 2.52165C17.6182 2.29684 15.7676 1.65988 14.7101 1.02293C12.3638 -0.288459 11.8682 -0.325926 9.65406 0.835587Z" fill="#111827"/>
<path d="M41.3894 24H36.9533V10.9091H41.4789C42.7786 10.9091 43.8951 11.1712 44.8283 11.6953C45.7658 12.2152 46.486 12.9631 46.9888 13.9389C47.4917 14.9148 47.7431 16.0824 47.7431 17.4418C47.7431 18.8054 47.4895 19.9773 46.9824 20.9574C46.4796 21.9375 45.753 22.6896 44.8027 23.2138C43.8567 23.7379 42.7189 24 41.3894 24ZM39.3248 21.9482H41.2743C42.1863 21.9482 42.9469 21.782 43.5563 21.4496C44.1657 21.1129 44.6238 20.6122 44.9306 19.9474C45.2374 19.2784 45.3908 18.4432 45.3908 17.4418C45.3908 16.4403 45.2374 15.6094 44.9306 14.9489C44.6238 14.2841 44.1699 13.7876 43.5691 13.4595C42.9725 13.1271 42.231 12.9609 41.3446 12.9609H39.3248V21.9482ZM49.6319 21.571V19.6854L55.1866 10.9091H56.7591V13.5938H55.8002L52.0609 19.5192V19.6214H59.8145V21.571H49.6319ZM55.877 24V20.9957L55.9025 20.152V10.9091H58.1397V24H55.877ZM64.1962 10.9091V24H61.8823V10.9091H64.1962ZM66.5756 24V14.1818H68.8896V24H66.5756ZM67.739 12.7884C67.3725 12.7884 67.0572 12.6669 66.793 12.424C66.5288 12.1768 66.3967 11.8807 66.3967 11.5355C66.3967 11.1861 66.5288 10.8899 66.793 10.647C67.0572 10.3999 67.3725 10.2763 67.739 10.2763C68.1097 10.2763 68.4251 10.3999 68.685 10.647C68.9492 10.8899 69.0813 11.1861 69.0813 11.5355C69.0813 11.8807 68.9492 12.1768 68.685 12.424C68.4251 12.6669 68.1097 12.7884 67.739 12.7884ZM75.5517 24.1918C74.5929 24.1918 73.7619 23.9808 73.0588 23.5589C72.3556 23.1371 71.8102 22.5469 71.4224 21.7884C71.0389 21.0298 70.8471 20.1435 70.8471 19.1293C70.8471 18.1151 71.0389 17.2266 71.4224 16.4638C71.8102 15.701 72.3556 15.1087 73.0588 14.6868C73.7619 14.2649 74.5929 14.054 75.5517 14.054C76.5105 14.054 77.3414 14.2649 78.0446 14.6868C78.7477 15.1087 79.291 15.701 79.6745 16.4638C80.0623 17.2266 80.2562 18.1151 80.2562 19.1293C80.2562 20.1435 80.0623 21.0298 79.6745 21.7884C79.291 22.5469 78.7477 23.1371 78.0446 23.5589C77.3414 23.9808 76.5105 24.1918 75.5517 24.1918ZM75.5645 22.3381C76.0843 22.3381 76.519 22.1953 76.8684 21.9098C77.2179 21.62 77.4778 21.2322 77.6483 20.7464C77.823 20.2607 77.9103 19.7195 77.9103 19.1229C77.9103 18.522 77.823 17.9787 77.6483 17.4929C77.4778 17.0028 77.2179 16.6129 76.8684 16.3232C76.519 16.0334 76.0843 15.8885 75.5645 15.8885C75.0318 15.8885 74.5886 16.0334 74.2349 16.3232C73.8855 16.6129 73.6234 17.0028 73.4487 17.4929C73.2782 17.9787 73.193 18.522 73.193 19.1229C73.193 19.7195 73.2782 20.2607 73.4487 20.7464C73.6234 21.2322 73.8855 21.62 74.2349 21.9098C74.5886 22.1953 75.0318 22.3381 75.5645 22.3381ZM84.5341 18.2472V24H82.2202V14.1818H84.4318V15.8501H84.5469C84.7727 15.3004 85.1328 14.8636 85.6271 14.5398C86.1257 14.2159 86.7415 14.054 87.4744 14.054C88.152 14.054 88.7422 14.1989 89.245 14.4886C89.7521 14.7784 90.1442 15.1982 90.4212 15.7479C90.7024 16.2976 90.8409 16.9645 90.8366 17.7486V24H88.5227V18.1065C88.5227 17.4503 88.3523 16.9368 88.0114 16.5661C87.6747 16.1953 87.2081 16.0099 86.6115 16.0099C86.2067 16.0099 85.8466 16.0994 85.5312 16.2784C85.2202 16.4531 84.9751 16.7067 84.7962 17.0391C84.6214 17.3714 84.5341 17.7741 84.5341 18.2472Z" fill="#1F2937"/>
</svg>
